<svg width="464" height="233" viewBox="0 0 464 233" fill="none" xmlns="http://www.w3.org/2000/svg">
<g clip-path="url(#clip0_1040_1556)">
<path d="M329 166C333.971 166 338 161.971 338 157C338 152.029 333.971 148 329 148L315 148C310.029 148 306 152.029 306 157C306 161.971 310.029 166 315 166L329 166Z" fill="#5FCB83"/>
<rect y="214" width="464" height="18.06" rx="9.03" fill="#5FCB83"/>
<circle cx="229.605" cy="59.6047" r="59.6047" fill="#F786E2"/>
<path d="M202.992 53.9699C207.716 46.8847 218.343 47.4751 221.295 53.9699" stroke="black" stroke-width="3.66325" stroke-linecap="round"/>
<path d="M238.082 53.9621C242.805 46.8769 253.433 47.4672 256.385 53.9621" stroke="black" stroke-width="3.66325" stroke-linecap="round"/>
<path d="M221.461 72.3877C224.565 80.7249 234.639 80.725 237.411 72.3879" stroke="black" stroke-width="3.66325" stroke-linecap="round"/>
<path d="M318 158C318 181.196 322 200 335 200C348 200 352 181.196 352 158C352 134.804 348.5 116 335 116C321.5 116 318 134.804 318 158Z" fill="#FFDA67"/>
<path d="M404 165.758C408.971 165.758 413 161.728 413 156.758C413 151.787 408.971 147.758 404 147.758L342 147.758C339.239 147.758 337 149.996 337 152.758L337 160.758C337 163.519 339.239 165.758 342 165.758L404 165.758Z" fill="#5FCB83"/>
<path d="M387 158C387 181.196 391 200 404 200C417 200 421 181.196 421 158C421 134.804 417.5 116 404 116C390.5 116 387 134.804 387 158Z" fill="#FFDA67"/>
<path d="M419 166C423.971 166 428 161.971 428 157C428 152.029 423.971 148 419 148L411 148C408.239 148 406 150.239 406 153L406 161C406 163.761 408.239 166 411 166L419 166Z" fill="#5FCB83"/>
<path d="M329 166C333.971 166 338 161.971 338 157C338 152.029 333.971 148 329 148L315 148C310.029 148 306 152.029 306 157C306 161.971 310.029 166 315 166L329 166Z" fill="#5FCB83"/>
<path d="M54 166C58.9706 166 63 161.971 63 157C63 152.029 58.9706 148 54 148L40 148C35.0294 148 31 152.029 31 157C31 161.971 35.0294 166 40 166L54 166Z" fill="#5FCB83"/>
<path d="M318 158C318 181.196 322 200 335 200C348 200 352 181.196 352 158C352 134.804 348.5 116 335 116C321.5 116 318 134.804 318 158Z" fill="#FFDA67"/>
<path d="M43 158C43 181.196 47 200 60 200C73 200 77 181.196 77 158C77 134.804 73.5 116 60 116C46.5 116 43 134.804 43 158Z" fill="#FFDA67"/>
<path d="M404 165.758C408.971 165.758 413 161.728 413 156.758C413 151.787 408.971 147.758 404 147.758L342 147.758C339.239 147.758 337 149.996 337 152.758L337 160.758C337 163.519 339.239 165.758 342 165.758L404 165.758Z" fill="#5FCB83"/>
<path d="M129 165.758C133.971 165.758 138 161.728 138 156.758C138 151.787 133.971 147.758 129 147.758L67 147.758C64.2386 147.758 62 149.996 62 152.758L62 160.758C62 163.519 64.2386 165.758 67 165.758L129 165.758Z" fill="#5FCB83"/>
<path d="M387 158C387 181.196 391 200 404 200C417 200 421 181.196 421 158C421 134.804 417.5 116 404 116C390.5 116 387 134.804 387 158Z" fill="#FFDA67"/>
<path d="M112 158C112 181.196 116 200 129 200C142 200 146 181.196 146 158C146 134.804 142.5 116 129 116C115.5 116 112 134.804 112 158Z" fill="#FFDA67"/>
<path d="M419 166C423.971 166 428 161.971 428 157C428 152.029 423.971 148 419 148L411 148C408.239 148 406 150.239 406 153L406 161C406 163.761 408.239 166 411 166L419 166Z" fill="#5FCB83"/>
<path d="M144 166C148.971 166 153 161.971 153 157C153 152.029 148.971 148 144 148L136 148C133.239 148 131 150.239 131 153L131 161C131 163.761 133.239 166 136 166L144 166Z" fill="#5FCB83"/>
</g>
<defs>
<clipPath id="clip0_1040_1556">
<rect width="464" height="233" fill="white"/>
</clipPath>
</defs>
</svg>
