<svg width="1084" height="162" viewBox="0 0 1084 162" fill="none" xmlns="http://www.w3.org/2000/svg">
<circle cx="237.248" cy="80.8969" r="38.7406" fill="#5DCB83"/>
<path d="M219.953 77.2334C223.023 72.6283 229.931 73.012 231.849 77.2334" stroke="#6451FA" stroke-width="3.27386" stroke-linecap="round"/>
<path d="M242.758 77.2334C245.828 72.6282 252.735 73.012 254.654 77.2334" stroke="#6451FA" stroke-width="3.27386" stroke-linecap="round"/>
<path d="M231.957 89.2015C233.974 94.6203 240.522 94.6204 242.324 89.2016" stroke="#6451FA" stroke-width="3.27386" stroke-linecap="round"/>
<path d="M0.84375 5.30237H52.5707V56.3745H94.476V5.30237H146.203V157.864H94.476V104.391H52.5707V157.864H0.84375V5.30237Z" fill="#6451FA"/>
<path d="M237.943 161.138C222.374 161.138 208.26 157.791 195.601 151.098C183.087 144.405 173.193 135.093 165.918 123.161C158.642 111.084 155.005 97.2614 155.005 81.6924C155.005 66.1233 158.642 52.3004 165.918 40.2235C173.193 28.1466 183.087 18.7616 195.601 12.0683C208.26 5.37512 222.374 2.02852 237.943 2.02852C253.366 2.02852 267.334 5.37512 279.848 12.0683C292.507 18.7616 302.474 28.1466 309.749 40.2235C317.024 52.3004 320.662 66.1233 320.662 81.6924C320.662 97.2614 317.024 111.084 309.749 123.161C302.474 135.093 292.507 144.405 279.848 151.098C267.334 157.791 253.366 161.138 237.943 161.138ZM237.943 112.467C246.673 112.467 253.875 109.702 259.55 104.173C265.225 98.6437 268.062 91.1502 268.062 81.6924C268.062 72.2345 265.225 64.7411 259.55 59.2119C253.875 53.6827 246.673 50.9181 237.943 50.9181C229.067 50.9181 221.791 53.6827 216.117 59.2119C210.442 64.7411 207.605 72.2345 207.605 81.6924C207.605 91.1502 210.442 98.6437 216.117 104.173C221.937 109.702 229.212 112.467 237.943 112.467Z" fill="#6451FA"/>
<path d="M329.406 5.30237H411.471C426.749 5.30237 439.044 9.08549 448.356 16.6517C457.668 24.0725 462.324 34.6216 462.324 48.299C462.324 54.1192 461.015 59.6484 458.396 64.8866C455.922 70.1247 452.285 74.4171 447.483 77.7637C454.467 81.1103 459.414 85.33 462.324 90.4226C465.38 95.5153 466.908 102.136 466.908 110.284C466.908 119.887 464.58 128.327 459.924 135.602C455.267 142.732 449.011 148.261 441.153 152.189C433.296 155.973 424.566 157.864 414.963 157.864H329.406V5.30237ZM396.629 63.1405C401.14 63.1405 404.414 62.2675 406.451 60.5214C408.633 58.6299 409.724 55.5743 409.724 51.3546C409.724 47.426 408.633 44.5887 406.451 42.8426C404.414 41.0965 401.14 40.2235 396.629 40.2235H379.605V63.1405H396.629ZM399.466 122.943C404.705 122.943 408.488 121.924 410.816 119.887C413.144 117.85 414.308 114.576 414.308 110.066C414.308 105.555 413.144 102.281 410.816 100.244C408.488 98.0616 404.705 96.9704 399.466 96.9704H379.605V122.943H399.466Z" fill="#6451FA"/>
<path d="M475.57 5.30237H557.635C572.913 5.30237 585.208 9.08549 594.52 16.6517C603.832 24.0725 608.488 34.6216 608.488 48.299C608.488 54.1192 607.179 59.6484 604.56 64.8866C602.086 70.1247 598.449 74.4171 593.647 77.7637C600.631 81.1103 605.578 85.33 608.488 90.4226C611.544 95.5153 613.072 102.136 613.072 110.284C613.072 119.887 610.744 128.327 606.088 135.602C601.431 142.732 595.175 148.261 587.317 152.189C579.46 155.973 570.73 157.864 561.127 157.864H475.57V5.30237ZM542.793 63.1405C547.304 63.1405 550.578 62.2675 552.615 60.5214C554.797 58.6299 555.888 55.5743 555.888 51.3546C555.888 47.426 554.797 44.5887 552.615 42.8426C550.578 41.0965 547.304 40.2235 542.793 40.2235H525.769V63.1405H542.793ZM545.63 122.943C550.869 122.943 554.652 121.924 556.98 119.887C559.308 117.85 560.472 114.576 560.472 110.066C560.472 105.555 559.308 102.281 556.98 100.244C554.652 98.0616 550.869 96.9704 545.63 96.9704H525.769V122.943H545.63Z" fill="#6451FA"/>
<path d="M656.176 99.5894L600.957 5.30237H656.176L682.148 53.5372L710.304 5.30237H765.304L707.903 99.5894V157.864H656.176V99.5894Z" fill="#6451FA"/>
<path d="M774.079 5.30237H825.806V157.864H774.079V5.30237Z" fill="#6451FA"/>
<path d="M889.677 161.138C879.637 161.138 870.99 160.304 859.111 158.82C849.428 157.61 835.449 154.742 835.449 154.742V109.782C843.754 112.006 850.08 113.527 860.212 115.304C870.043 117.028 877.818 118.796 885.53 118.796C889.895 118.796 893.023 118.36 894.915 117.487C896.807 116.613 897.752 115.231 897.752 113.34C897.752 110.721 896.297 108.538 893.387 106.792C890.477 104.9 884.293 101.845 874.835 97.6251C860.867 91.5139 850.682 84.748 844.279 77.3272C838.023 69.761 834.894 60.5942 834.894 49.8268C834.894 40.5145 837.441 32.2935 842.533 25.1638C847.771 17.8885 855.047 12.2138 864.359 8.13971C873.817 4.06558 883.783 2.0287 896.661 1.03773C906.95 0.245968 923.07 1.95239 923.07 1.95239C923.07 1.95239 936.64 3.0193 943.132 5.40998V48.7355C943.132 48.7355 919.069 44.3704 906.264 44.3704C895.933 44.3704 890.768 46.6257 890.768 51.1364C890.768 53.3189 891.932 55.1377 894.26 56.5928C896.734 58.0478 901.099 60.0122 907.356 62.4857L915.431 65.7596C925.762 70.1247 933.692 74.4899 939.221 78.855C944.75 83.0746 948.679 87.9491 951.007 93.4782C953.335 98.8619 954.499 105.701 954.499 113.994C954.499 128.69 949.115 140.258 938.348 148.697C927.581 156.991 911.357 161.138 889.677 161.138Z" fill="#6451FA"/>
<path d="M992.602 48.7355H953.534V5.30237H1083.4V48.7355H1044.33V157.864H992.602V48.7355Z" fill="#6451FA"/>
</svg>
