<svg width="511" height="338" viewBox="0 0 511 338" fill="none" xmlns="http://www.w3.org/2000/svg">
<g clip-path="url(#clip0_1040_1440)">
<circle cx="267.428" cy="114.424" r="64.1108" transform="rotate(-16.1697 267.428 114.424)" fill="#5FCB83"/>
<path d="M238.245 116.568C241.002 107.834 252.158 105.26 257.153 111.086" stroke="black" stroke-width="5.41781" stroke-linecap="round"/>
<path d="M274.499 106.052C277.256 97.3181 288.412 94.7447 293.407 100.57" stroke="black" stroke-width="5.41781" stroke-linecap="round"/>
<path d="M262.842 130.072C268.546 137.755 278.953 134.737 279.32 125.294" stroke="black" stroke-width="5.41781" stroke-linecap="round"/>
<rect x="52" y="188" width="106" height="150" rx="12" fill="#6451FA"/>
<rect x="192" y="188" width="319" height="148" rx="12" fill="#FFDA67"/>
<path d="M94.6077 27C99.2265 19 110.774 19 115.392 27L185.54 148.5C190.159 156.5 184.386 166.5 175.148 166.5H34.852C25.6143 166.5 19.8408 156.5 24.4596 148.5L94.6077 27Z" fill="#D0B0F2"/>
<rect x="353" width="158" height="158" rx="12" fill="#6451FA"/>
</g>
<defs>
<clipPath id="clip0_1040_1440">
<rect width="511" height="338" fill="white"/>
</clipPath>
</defs>
</svg>
