<svg width="609" height="336" viewBox="0 0 609 336" fill="none" xmlns="http://www.w3.org/2000/svg">
<g clip-path="url(#clip0_1040_1451)">
<ellipse cx="158.124" cy="96.4096" rx="76.933" ry="76.9329" transform="rotate(-17.3935 158.124 96.4096)" fill="#D0B0F2"/>
<path d="M123.169 99.7285C126.253 89.1792 139.571 85.8059 145.713 92.6665" stroke="black" stroke-width="6.50138" stroke-linecap="round"/>
<path d="M166.388 86.1895C169.472 75.6401 182.789 72.2668 188.932 79.1275" stroke="black" stroke-width="6.50138" stroke-linecap="round"/>
<path d="M153.025 115.298C160.065 124.37 172.473 120.483 172.671 109.144" stroke="black" stroke-width="6.50138" stroke-linecap="round"/>
<path d="M41.2852 130.258C25.3453 117.678 25.2877 110.336 36.4257 96.8337" stroke="#6451FA" stroke-width="11.52" stroke-linecap="round"/>
<path d="M261.094 16.7969C280.558 22.583 283.329 29.3822 277.98 46.0481" stroke="#6451FA" stroke-width="11.52" stroke-linecap="round"/>
<path d="M19.2227 130.508C3.28278 117.928 3.22518 110.586 14.3632 97.0837" stroke="#6451FA" stroke-width="11.52" stroke-linecap="round"/>
<path d="M281.496 8.39844C300.96 14.1845 303.732 20.9838 298.383 37.6497" stroke="#6451FA" stroke-width="11.52" stroke-linecap="round"/>
<ellipse cx="464.716" cy="250.002" rx="76.933" ry="76.9329" transform="rotate(-0.80427 464.716 250.002)" fill="#F786E2"/>
<path d="M430.268 243.2C436.236 233.971 449.962 234.54 453.89 242.869" stroke="black" stroke-width="6.50138" stroke-linecap="round"/>
<path d="M475.557 242.56C481.525 233.33 495.251 233.9 499.179 242.228" stroke="black" stroke-width="6.50138" stroke-linecap="round"/>
<path d="M454.437 266.649C458.594 277.352 471.596 277.17 475.023 266.36" stroke="black" stroke-width="6.50138" stroke-linecap="round"/>
<path d="M343.695 249.602C329.828 234.768 330.876 227.5 343.917 215.827" stroke="#6451FA" stroke-width="11.52" stroke-linecap="round"/>
<path d="M582.484 286.992C587.778 306.596 583.446 312.524 566.454 316.721" stroke="#6451FA" stroke-width="11.52" stroke-linecap="round"/>
<path d="M321.848 246.531C307.981 231.697 309.028 224.43 322.07 212.756" stroke="#6451FA" stroke-width="11.52" stroke-linecap="round"/>
<path d="M600.344 299.938C605.638 319.541 601.306 325.469 584.313 329.666" stroke="#6451FA" stroke-width="11.52" stroke-linecap="round"/>
</g>
<defs>
<clipPath id="clip0_1040_1451">
<rect width="609" height="336" fill="white"/>
</clipPath>
</defs>
</svg>
