<svg width="490" height="385" viewBox="0 0 490 385" fill="none" xmlns="http://www.w3.org/2000/svg">
<path d="M382.541 7C389.942 7 391.49 15.246 398.706 16.893C405.921 18.5399 410.894 11.7822 417.562 14.9934C424.23 18.2047 422.047 26.3058 427.834 30.9203C433.62 35.5349 441.032 31.6039 445.647 37.3904C450.261 43.1769 444.78 49.5286 447.991 56.1968C451.202 62.865 459.586 62.5394 461.233 69.755C462.88 76.9707 455.185 80.3149 455.185 87.716C455.185 95.1172 462.88 98.4614 461.233 105.677C459.586 112.893 451.202 112.567 447.991 119.235C444.78 125.904 450.261 132.255 445.647 138.042C441.032 143.828 433.62 139.897 427.834 144.512C422.047 149.126 424.23 157.227 417.562 160.439C410.894 163.65 405.921 156.892 398.706 158.539C391.49 160.186 389.942 168.432 382.541 168.432C375.139 168.432 373.591 160.186 366.376 158.539C359.16 156.892 354.187 163.65 347.519 160.439C340.851 157.227 343.034 149.126 337.248 144.512C331.461 139.897 324.049 143.828 319.434 138.042C314.82 132.255 320.301 125.904 317.09 119.235C313.879 112.567 305.495 112.893 303.848 105.677C302.201 98.4614 309.896 95.1172 309.896 87.716C309.896 80.3149 302.201 76.9707 303.848 69.755C305.495 62.5394 313.879 62.865 317.09 56.1968C320.301 49.5286 314.82 43.1769 319.434 37.3904C324.049 31.6039 331.461 35.5349 337.248 30.9203C343.034 26.3058 340.851 18.2047 347.519 14.9934C354.187 11.7822 359.16 18.5399 366.376 16.893C373.591 15.246 375.139 7 382.541 7Z" fill="#FFDA67"/>
<circle cx="76.1726" cy="208.908" r="62.6837" transform="rotate(-14.2346 76.1726 208.908)" fill="#F786E2"/>
<path d="M47.587 210.037C50.5697 201.593 61.5558 199.447 66.2446 205.304" stroke="black" stroke-width="5.29722" stroke-linecap="round"/>
<path d="M83.3566 200.967C86.3392 192.523 97.3253 190.377 102.014 196.234" stroke="black" stroke-width="5.29722" stroke-linecap="round"/>
<path d="M71.176 224.04C76.4959 231.736 86.7651 229.131 87.4355 219.915" stroke="black" stroke-width="5.29722" stroke-linecap="round"/>
<path d="M248.505 236.829C257.776 231.38 269.271 231.38 278.542 236.829L482.229 356.559C495.245 364.21 489.818 384.151 474.719 384.151H52.3281C37.2286 384.151 31.8016 364.211 44.8184 356.559L61.6699 346.652C65.3039 351.668 71.2086 354.931 77.876 354.931H115.876C126.922 354.931 135.876 345.976 135.876 334.931V324.931C135.876 324.514 135.861 324.1 135.836 323.689C141.67 326.664 148.844 326.718 154.938 323.2L181.751 307.72C191.317 302.197 194.595 289.964 189.072 280.398L185.563 274.322C185.492 274.198 185.418 274.076 185.345 273.954L248.505 236.829Z" fill="#5DCB83"/>
<rect x="167.293" y="266.93" width="29" height="47" rx="14.5" transform="rotate(60 167.293 266.93)" fill="#FFDA67"/>
<path d="M122.219 277.393C120.372 273.379 122.129 268.628 126.143 266.781L131.594 264.274C135.607 262.427 140.358 264.184 142.205 268.198L154.512 294.949C157.051 300.468 154.636 307 149.116 309.54C143.597 312.079 137.065 309.663 134.526 304.144L122.219 277.393Z" fill="#FFDA67"/>
<rect x="121.875" y="312.375" width="29" height="47" rx="14.5" transform="rotate(90 121.875 312.375)" fill="#FFDA67"/>
<path d="M77.6055 298.896C78.0132 294.496 81.9102 291.26 86.3096 291.668L92.284 292.222C96.6834 292.629 99.9194 296.526 99.5117 300.926L96.7944 330.246C96.2338 336.296 90.8755 340.745 84.8263 340.184C78.7771 339.624 74.3277 334.266 74.8883 328.216L77.6055 298.896Z" fill="#FFDA67"/>
</svg>
