<svg width="631" height="334" viewBox="0 0 631 334" fill="none" xmlns="http://www.w3.org/2000/svg">
<g clip-path="url(#clip0_1040_1627)">
<path d="M101.555 103.875C101.555 103.875 225.302 167.1 312.566 167.1C399.829 167.1 523.577 103.875 523.577 103.875V142.207C523.577 142.207 402.227 262.569 312.566 262.569C222.904 262.569 101.555 142.207 101.555 142.207V103.875Z" fill="#6451FA"/>
<path d="M97.5346 86.1702C97.9298 81.5763 101.776 78.0938 106.387 78.0938H117.063C121.994 78.0938 125.99 82.0495 125.99 86.9796C125.99 108.82 125.99 166.241 125.99 206.043C125.99 245.339 130.442 301.807 132.355 324.255C132.802 329.492 128.675 333.992 123.419 333.992H106.387C101.776 333.992 97.9298 330.51 97.5346 325.916C95.7111 304.717 91.0273 246.347 91.0273 206.043C91.0273 165.739 95.7111 107.369 97.5346 86.1702Z" fill="#9747FF"/>
<path d="M532.891 86.1702C532.496 81.5763 528.65 78.0938 524.039 78.0938H513.362C508.432 78.0938 504.436 82.0495 504.436 86.9796C504.436 108.82 504.436 166.241 504.436 206.043C504.436 245.339 499.983 301.807 498.071 324.255C497.624 329.492 501.751 333.992 507.006 333.992H524.039C528.65 333.992 532.496 330.51 532.891 325.916C534.715 304.717 539.398 246.347 539.398 206.043C539.398 165.739 534.715 107.369 532.891 86.1702Z" fill="#9747FF"/>
<path d="M125.173 93.6921C119.027 96.2475 111.949 91.8001 111.949 85.1439L111.949 70.194C111.949 66.8295 113.828 63.7596 116.885 62.3539C127.43 57.5047 152.721 46.8556 171.46 46.8556C191.52 46.8556 219.086 68.9296 228.037 76.5794C229.94 78.2055 230.972 80.5776 230.972 83.0805L230.972 85.1439C230.972 91.8001 223.894 96.2475 217.748 93.6921C205.268 88.5034 186.308 81.8185 171.46 81.8185C156.613 81.8185 137.653 88.5034 125.173 93.6921Z" fill="#5DCB83"/>
<path d="M505.249 93.6921C511.395 96.2475 518.473 91.8001 518.473 85.1439L518.473 70.194C518.473 66.8295 516.593 63.7596 513.537 62.3539C502.992 57.5047 477.701 46.8556 458.961 46.8556C438.902 46.8556 411.336 68.9296 402.385 76.5794C400.482 78.2055 399.45 80.5776 399.45 83.0805L399.45 85.1439C399.45 91.8001 406.528 96.2475 412.674 93.6921C425.154 88.5034 444.114 81.8185 458.961 81.8185C473.809 81.8185 492.769 88.5034 505.249 93.6921Z" fill="#5DCB83"/>
<path d="M117.937 72.6139C112.661 76.6729 104.674 74.2089 102.951 67.7795L99.0815 53.339C98.2107 50.0892 99.2314 46.6375 101.82 44.4886C110.751 37.0753 132.424 20.2434 150.524 15.3933C170.453 10.0534 201.393 25.5695 210.21 30.3346C211.805 31.1966 213.04 32.5587 213.809 34.2007L214.094 34.8095C217.216 41.4767 211.324 49.1024 204.014 48.2326C190.783 46.6582 172.766 45.63 159.574 49.1648C145.232 53.0076 128.648 64.3719 117.937 72.6139Z" fill="#5DCB83"/>
<path d="M512.489 72.6139C517.765 76.6729 525.752 74.2089 527.475 67.7795L531.344 53.339C532.215 50.0892 531.194 46.6375 528.606 44.4886C519.675 37.0753 498.002 20.2434 479.901 15.3933C459.973 10.0534 429.033 25.5695 420.216 30.3346C418.621 31.1966 417.385 32.5587 416.617 34.2007L416.332 34.8095C413.21 41.4767 419.101 49.1024 426.412 48.2326C439.643 46.6582 457.66 45.63 470.852 49.1648C485.194 53.0076 501.777 64.3719 512.489 72.6139Z" fill="#5DCB83"/>
<path d="M105.796 93.6921C111.942 96.2475 119.02 91.8001 119.02 85.1439L119.02 70.194C119.02 66.8295 117.14 63.7596 114.084 62.3539C103.538 57.5047 78.2477 46.8556 59.5084 46.8556C39.4489 46.8556 11.8826 68.9296 2.9316 76.5794C1.02895 78.2055 -0.00279367 80.5776 -0.00279378 83.0805L-0.00279387 85.1439C-0.00279416 91.8001 7.07487 96.2475 13.2211 93.6921C25.7011 88.5034 44.661 81.8185 59.5084 81.8185C74.3557 81.8185 93.3156 88.5034 105.796 93.6921Z" fill="#5DCB83"/>
<path d="M524.626 93.6921C518.48 96.2475 511.402 91.8001 511.402 85.1439L511.402 70.194C511.402 66.8295 513.282 63.7596 516.338 62.3539C526.883 57.5047 552.174 46.8556 570.914 46.8556C590.973 46.8556 618.539 68.9296 627.49 76.5794C629.393 78.2055 630.425 80.5776 630.425 83.0805L630.425 85.1439C630.425 91.8001 623.347 96.2475 617.201 93.6921C604.721 88.5034 585.761 81.8185 570.914 81.8185C556.066 81.8185 537.106 88.5034 524.626 93.6921Z" fill="#5DCB83"/>
<path d="M113.036 72.6139C118.312 76.6729 126.299 74.2089 128.022 67.7795L131.891 53.339C132.762 50.0892 131.741 46.6375 129.153 44.4886C120.222 37.0753 98.549 20.2434 80.4482 15.3933C60.5196 10.0534 29.5795 25.5695 20.7627 30.3346C19.1678 31.1966 17.9323 32.5587 17.1635 34.2007L16.8785 34.8095C13.757 41.4767 19.6482 49.1024 26.9584 48.2326C40.1894 46.6582 58.2069 45.63 71.3991 49.1648C85.7405 53.0076 102.324 64.3719 113.036 72.6139Z" fill="#5DCB83"/>
<path d="M517.39 72.6139C512.114 76.6729 504.127 74.2089 502.404 67.7795L498.535 53.339C497.664 50.0892 498.684 46.6375 501.273 44.4886C510.204 37.0753 531.877 20.2434 549.978 15.3933C569.906 10.0534 600.846 25.5695 609.663 30.3346C611.258 31.1966 612.494 32.5587 613.262 34.2007L613.547 34.8095C616.669 41.4767 610.778 49.1024 603.467 48.2326C590.236 46.6582 572.219 45.63 559.027 49.1648C544.685 53.0076 528.102 64.3719 517.39 72.6139Z" fill="#5DCB83"/>
<path d="M105.942 95.3103C99.2866 95.376 94.3914 88.6003 96.8859 82.4292L102.489 68.5688C103.749 65.4496 106.642 63.3076 110.003 63.15C121.597 62.606 149.035 62.2111 166.409 69.2339C185.109 76.793 201.233 103.626 206.14 112.464C207.16 114.301 207.409 116.432 206.931 118.478L205.749 123.54C204.096 130.625 194.937 133.028 189.696 127.983C180.065 118.712 166.119 106.828 153.306 101.649C139.541 96.0845 119.458 95.1768 105.942 95.3103Z" fill="#5DCB83"/>
<path d="M524.483 95.3103C531.139 95.376 536.034 88.6003 533.54 82.4292L527.937 68.5688C526.676 65.4496 523.784 63.3076 520.423 63.15C508.829 62.606 481.391 62.2111 464.017 69.2339C445.316 76.793 429.193 103.626 424.285 112.464C423.265 114.301 423.017 116.432 423.495 118.478L424.676 123.54C426.33 130.625 435.488 133.028 440.73 127.983C450.361 118.712 464.307 106.828 477.12 101.649C490.885 96.0845 510.968 95.1768 524.483 95.3103Z" fill="#5DCB83"/>
<path d="M124.144 90.7326C130.783 90.2574 135.111 83.1063 132.124 77.1583L125.413 63.799C123.903 60.7924 120.846 58.8926 117.484 59.0085C105.884 59.4084 78.5041 61.244 61.7584 69.6552C43.7239 78.7137 29.4393 112.213 25.1433 123.228C24.2606 125.491 24.4322 127.99 25.5261 130.159L25.7555 130.614C28.7497 136.552 37.0608 137.342 41.4016 132.304C50.2241 122.065 64.1754 107.567 77.4514 100.898C90.7191 94.2341 110.662 91.6976 124.144 90.7326Z" fill="#5DCB83"/>
<path d="M506.282 93.5451C499.643 93.0699 495.314 85.9188 498.302 79.9708L505.012 66.6115C506.522 63.6049 509.58 61.7051 512.942 61.821C524.542 62.2209 551.922 64.0565 568.667 72.4677C586.702 81.5262 600.986 115.025 605.283 126.04C606.165 128.304 605.994 130.803 604.9 132.972L604.67 133.427C601.676 139.365 593.365 140.154 589.024 135.116C580.202 124.877 566.25 110.379 552.974 103.711C539.707 97.0466 519.763 94.5101 506.282 93.5451Z" fill="#5DCB83"/>
<ellipse cx="57.8742" cy="57.8741" rx="57.8742" ry="57.8741" transform="matrix(-0.974801 0.223075 0.223075 0.974801 359.574 104.594)" fill="#F786E2"/>
<path d="M340.033 162.815C334.028 157.131 324.097 159.992 322.709 166.779" stroke="black" stroke-width="4.89077" stroke-linecap="round"/>
<path d="M306.822 170.416C300.817 164.733 290.886 167.594 289.499 174.38" stroke="black" stroke-width="4.89077" stroke-linecap="round"/>
<path d="M326.544 184.254C325.412 192.817 315.877 194.999 311.447 187.709" stroke="black" stroke-width="4.89077" stroke-linecap="round"/>
<circle cx="290.566" cy="157.753" r="26.1488" transform="rotate(-4.71804 290.566 157.753)" fill="#5DCB83"/>
<circle cx="290.569" cy="157.754" r="23.5008" transform="rotate(-4.71804 290.569 157.754)" fill="#B2EAC5"/>
<circle opacity="0.2" cx="290.567" cy="157.752" r="13.5709" transform="rotate(-4.71804 290.567 157.752)" fill="#5DCB83"/>
<path d="M281.944 157.13L285.518 157.06C285.948 157.051 286.094 156.484 285.722 156.269L282.627 154.479C281.825 154.015 280.8 154.431 280.548 155.323C280.289 156.241 280.99 157.149 281.944 157.13Z" fill="white"/>
<path d="M284.099 164.576L286.984 162.464C287.33 162.21 287.791 162.573 287.626 162.97L286.25 166.269C285.893 167.125 284.826 167.416 284.084 166.859C283.322 166.286 283.329 165.139 284.099 164.576Z" fill="white"/>
<path d="M299.572 156.345L296.042 156.915C295.618 156.983 295.373 156.45 295.7 156.173L298.426 153.859C299.132 153.259 300.215 153.485 300.622 154.318C301.041 155.175 300.514 156.193 299.572 156.345Z" fill="white"/>
<path d="M291.36 148.441L290.661 151.947C290.577 152.368 289.992 152.412 289.846 152.009L288.63 148.646C288.315 147.775 288.905 146.839 289.828 146.749C290.777 146.655 291.547 147.505 291.36 148.441Z" fill="white"/>
<path d="M297.711 163.799L294.519 162.189C294.135 161.995 293.74 162.429 293.968 162.793L295.867 165.822C296.359 166.608 297.459 166.72 298.099 166.049C298.758 165.359 298.563 164.228 297.711 163.799Z" fill="white"/>
<circle cx="336.559" cy="149.55" r="26.1488" transform="rotate(-4.71804 336.559 149.55)" fill="#5DCB83"/>
<circle cx="336.561" cy="149.551" r="23.5008" transform="rotate(-4.71804 336.561 149.551)" fill="#B2EAC5"/>
<circle opacity="0.2" cx="336.559" cy="149.549" r="13.5709" transform="rotate(-4.71804 336.559 149.549)" fill="#5DCB83"/>
<path d="M327.936 148.927L331.51 148.857C331.94 148.848 332.086 148.28 331.714 148.065L328.619 146.276C327.817 145.812 326.792 146.228 326.54 147.12C326.281 148.038 326.982 148.946 327.936 148.927Z" fill="white"/>
<path d="M330.091 156.373L332.976 154.261C333.322 154.007 333.783 154.37 333.618 154.766L332.242 158.066C331.885 158.922 330.818 159.212 330.077 158.656C329.314 158.083 329.321 156.936 330.091 156.373Z" fill="white"/>
<path d="M345.564 148.142L342.035 148.712C341.611 148.78 341.365 148.247 341.692 147.969L344.418 145.656C345.125 145.056 346.207 145.282 346.615 146.115C347.034 146.972 346.506 147.99 345.564 148.142Z" fill="white"/>
<path d="M337.352 140.238L336.653 143.744C336.569 144.165 335.984 144.209 335.838 143.805L334.622 140.443C334.307 139.572 334.897 138.636 335.82 138.546C336.769 138.452 337.539 139.302 337.352 140.238Z" fill="white"/>
<path d="M343.703 155.596L340.511 153.986C340.128 153.792 339.732 154.226 339.96 154.59L341.859 157.619C342.351 158.405 343.452 158.516 344.091 157.846C344.75 157.155 344.555 156.025 343.703 155.596Z" fill="white"/>
<circle cx="91.9438" cy="90.9985" r="18.7641" fill="#F971E0"/>
<circle cx="125.721" cy="84.436" r="18.7641" fill="#F786E2"/>
<circle cx="113.522" cy="112.577" r="18.7641" fill="#FFABEF"/>
<circle cx="18.7641" cy="18.7641" r="18.7641" transform="matrix(-1 0 0 1 554.48 72.2344)" fill="#F971E0"/>
<circle cx="18.7641" cy="18.7641" r="18.7641" transform="matrix(-1 0 0 1 520.703 65.6719)" fill="#F786E2"/>
</g>
<defs>
<clipPath id="clip0_1040_1627">
<rect width="630.474" height="334.001" fill="white"/>
</clipPath>
</defs>
</svg>
