<svg width="676" height="441" viewBox="0 0 676 441" fill="none" xmlns="http://www.w3.org/2000/svg">
<g clip-path="url(#clip0_1040_1493)">
<path id="social-hat1" d="M109.399 125.199L115.313 50.6883C115.583 47.2792 119.73 45.7597 122.139 48.1869L176.326 102.778C178.818 105.289 177.059 109.584 173.524 109.715C147.866 110.671 132.442 114.897 116.658 128.624C113.81 131.1 109.1 128.962 109.399 125.199Z" fill="#F786E2"/>
<path id="social-hat2" d="M539.522 253.278L592.329 200.379C594.745 197.959 598.888 199.49 599.149 202.9L605.016 279.594C605.286 283.121 601.163 285.251 598.385 283.059C578.23 267.153 563.747 260.372 542.829 260.591C539.055 260.63 536.856 255.949 539.522 253.278Z" fill="#6451FA"/>
<path id="social-hat3" d="M372.587 78.1065L409.415 13.0637C411.1 10.0878 415.501 10.4617 416.66 13.6792L442.722 86.0473C443.921 89.3759 440.513 92.5261 437.253 91.1523C413.591 81.1822 397.826 78.4994 377.721 84.276C374.093 85.3182 370.728 81.3906 372.587 78.1065Z" fill="#F786E2"/>
<path d="M420.755 25.1111C412.744 36.6807 407.046 40.5777 393.477 40.8323L385.166 56.0699C398.648 56.3096 416.633 55.7421 426.191 39.84L420.755 25.1111Z" fill="#FFDA67"/>
<path d="M431.81 55.6682C423.799 67.2379 394.132 72.9198 379.705 65.3794C376.547 71.338 371.646 78.0801 372.018 80.2848C382.912 85.701 426.692 84.4267 436.251 68.5246L431.81 55.6682Z" fill="#FFDA67"/>
<ellipse id="social-person1" cx="166.413" cy="186.261" rx="76.933" ry="76.9329" transform="rotate(-17.3935 166.413 186.261)" fill="#D0B0F2"/>
<path d="M131.458 189.58C134.542 179.031 147.86 175.657 154.002 182.518" stroke="black" stroke-width="6.50138" stroke-linecap="round"/>
<path d="M174.677 176.041C177.761 165.492 191.079 162.118 197.221 168.979" stroke="black" stroke-width="6.50138" stroke-linecap="round"/>
<path d="M161.314 205.15C168.354 214.221 180.762 210.334 180.96 198.996" stroke="black" stroke-width="6.50138" stroke-linecap="round"/>
<ellipse id="social-person2" cx="403.003" cy="157.848" rx="76.933" ry="76.9329" transform="rotate(5.41388 403.003 157.848)" fill="#6451FA"/>
<path d="M369.497 147.359C376.429 138.83 390.013 140.883 393.015 149.588" stroke="black" stroke-width="6.50138" stroke-linecap="round"/>
<path d="M414.583 151.633C421.515 143.104 435.099 145.156 438.101 153.862" stroke="black" stroke-width="6.50138" stroke-linecap="round"/>
<path d="M390.98 173.278C393.953 184.369 406.898 185.596 411.476 175.22" stroke="black" stroke-width="6.50138" stroke-linecap="round"/>
<ellipse id="social-person3" cx="545.157" cy="337.844" rx="76.933" ry="76.9329" transform="rotate(12.8897 545.157 337.844)" fill="#F786E2"/>
<path d="M513.299 323.082C521.282 315.528 534.483 319.33 536.327 328.352" stroke="black" stroke-width="6.50138" stroke-linecap="round"/>
<path d="M557.451 333.184C565.434 325.629 578.635 329.432 580.48 338.454" stroke="black" stroke-width="6.50138" stroke-linecap="round"/>
<path d="M531.23 351.586C532.735 362.969 545.41 365.87 551.299 356.179" stroke="black" stroke-width="6.50138" stroke-linecap="round"/>
<path d="M265.404 280.245L281.639 207.284C282.382 203.945 286.7 203.018 288.747 205.757L334.802 267.364C336.92 270.198 334.58 274.206 331.061 273.844C305.519 271.215 289.658 273.252 272.115 284.647C268.95 286.702 264.584 283.929 265.404 280.245Z" fill="#EFBB60"/>
<path d="M296 215.5C295 226.5 286 234.5 275 236L271.5 253C284.5 253 301 246 305.5 228L296 215.5Z" fill="#F786E2"/>
<path d="M315.498 241.5C311.214 254.904 284.497 269 268.497 266C267.217 272.621 264.498 280.5 265.497 282.5C277.497 284.5 318.998 270.5 323.498 252.5L315.498 241.5Z" fill="#F786E2"/>
<path d="M291 208.5C291 208.5 285.099 221.324 278.5 220.5L281.554 206.757C282.305 203.378 286.702 202.483 288.714 205.299L291 208.5Z" fill="#F786E2"/>
<path d="M418.199 18.0638C410.038 25.1218 406.5 28.0041 400.999 28.0041L409.428 12.8018C411.126 9.73968 415.661 10.1826 416.734 13.5154L418.199 18.0638Z" fill="#FFDA67"/>
<ellipse id="social-person4" cx="316.297" cy="343.851" rx="76.933" ry="76.9329" transform="rotate(-8.57035 316.297 343.851)" fill="#FFDA67"/>
<path d="M281.246 341.768C285.911 331.817 299.589 330.526 304.606 338.248" stroke="black" stroke-width="6.50138" stroke-linecap="round"/>
<path d="M326.035 335.018C330.7 325.067 344.378 323.776 349.395 331.498" stroke="black" stroke-width="6.50138" stroke-linecap="round"/>
<path d="M308.364 361.738C313.929 371.782 326.786 369.844 328.722 358.67" stroke="black" stroke-width="6.50138" stroke-linecap="round"/>
<circle id="social-confetti1" cx="65" cy="288" r="5" fill="#FFDA67"/>
<circle id="social-confetti2" cx="588" cy="35.1094" r="5" fill="#FFDA67"/>
<circle id="social-confetti3" cx="626" cy="80" r="5" fill="#FFDA67"/>
<circle id="social-confetti4" cx="140" cy="369" r="5" fill="#9747FF"/>
<circle id="social-confetti5" cx="548" cy="28" r="5" fill="#9747FF"/>
<circle id="social-confetti6" cx="150" cy="436" r="5" fill="#FFDA67"/>
<circle id="social-confetti7" cx="530" cy="145" r="5" fill="#FFDA67"/>
<circle id="social-confetti8" cx="65" cy="398" r="5" fill="#D0B0F2"/>
<circle id="social-confetti9" cx="593" cy="70" r="5" fill="#D0B0F2"/>
<circle id="social-confetti10" cx="5" cy="337" r="5" fill="#F786E2"/>
<circle id="social-confetti11" cx="543" cy="93" r="5" fill="#F786E2"/>
<rect x="82" y="359.094" width="12" height="12" rx="2" transform="rotate(-57.2452 82 359.094)" fill="#9747FF"/>
<rect x="552" y="132.094" width="12" height="12" transform="rotate(-57.2452 552 132.094)" fill="#9747FF"/>
<rect x="133.281" y="301.703" width="16.4222" height="16.4222" rx="2" transform="rotate(-57.2452 133.281 301.703)" fill="#F786E2"/>
<rect x="99" y="424.062" width="10.7809" height="10.7809" rx="2" transform="rotate(-57.2452 99 424.062)" fill="#F786E2"/>
<rect x="653" y="53.8125" width="16.4222" height="16.4222" transform="rotate(-57.2452 653 53.8125)" fill="#F786E2"/>
<path d="M606.931 189.097C607.823 189.856 607.163 191.008 607.864 191.947C608.564 192.885 609.857 192.581 610.331 193.652C610.805 194.723 609.711 195.475 609.934 196.625C610.158 197.775 611.455 198.061 611.417 199.232C611.379 200.403 610.067 200.606 609.77 201.738C609.473 202.871 610.516 203.692 609.975 204.73C609.433 205.769 608.163 205.382 607.403 206.274C606.644 207.166 607.228 208.358 606.29 209.059C605.351 209.759 604.374 208.86 603.303 209.334C602.232 209.808 602.241 211.135 601.091 211.359C599.942 211.583 599.452 210.349 598.281 210.311C597.111 210.274 596.543 211.474 595.41 211.177C594.277 210.879 594.371 209.555 593.333 209.013C592.295 208.471 591.262 209.306 590.37 208.547C589.479 207.788 590.138 206.635 589.438 205.697C588.737 204.758 587.445 205.062 586.971 203.991C586.497 202.92 587.591 202.168 587.367 201.018C587.143 199.869 585.847 199.582 585.884 198.411C585.922 197.241 587.234 197.038 587.531 195.905C587.828 194.772 586.785 193.951 587.327 192.913C587.869 191.875 589.139 192.261 589.898 191.369C590.657 190.478 590.073 189.285 591.012 188.585C591.951 187.884 592.927 188.784 593.998 188.31C595.069 187.836 595.06 186.508 596.21 186.284C597.36 186.06 597.849 187.294 599.02 187.332C600.191 187.37 600.759 186.17 601.891 186.467C603.024 186.764 602.93 188.088 603.969 188.63C605.007 189.172 606.039 188.337 606.931 189.097Z" fill="#FFDA67"/>
<path d="M117.489 35C118.66 35 118.905 36.3049 120.047 36.5655C121.189 36.8261 121.976 35.7567 123.031 36.2649C124.086 36.7731 123.741 38.055 124.657 38.7852C125.572 39.5155 126.745 38.8934 127.475 39.8091C128.206 40.7248 127.338 41.7299 127.846 42.7851C128.354 43.8403 129.681 43.7888 129.942 44.9306C130.202 46.0724 128.985 46.6016 128.985 47.7728C128.985 48.944 130.202 49.4732 129.942 50.615C129.681 51.7569 128.354 51.7053 127.846 52.7606C127.338 53.8158 128.206 54.8209 127.475 55.7366C126.745 56.6522 125.572 56.0302 124.657 56.7604C123.741 57.4906 124.086 58.7726 123.031 59.2807C121.976 59.7889 121.189 58.7195 120.047 58.9802C118.905 59.2408 118.66 60.5457 117.489 60.5457C116.318 60.5457 116.073 59.2408 114.931 58.9802C113.789 58.7195 113.002 59.7889 111.947 59.2807C110.892 58.7726 111.237 57.4906 110.322 56.7604C109.406 56.0302 108.233 56.6522 107.503 55.7366C106.773 54.8209 107.64 53.8158 107.132 52.7606C106.624 51.7053 105.297 51.7569 105.037 50.615C104.776 49.4732 105.994 48.944 105.994 47.7728C105.994 46.6016 104.776 46.0724 105.037 44.9306C105.297 43.7888 106.624 43.8403 107.132 42.7851C107.64 41.7299 106.773 40.7248 107.503 39.8091C108.233 38.8934 109.406 39.5155 110.322 38.7852C111.237 38.055 110.892 36.7731 111.947 36.2649C113.002 35.7567 113.789 36.8261 114.931 36.5655C116.073 36.3049 116.318 35 117.489 35Z" fill="#FFDA67"/>
<path d="M108 394C119.85 394.438 122.44 399.092 121.943 413" stroke="#6451FA" stroke-width="8" stroke-linecap="round"/>
<path d="M604 103C592.15 103.438 589.56 108.092 590.057 122" stroke="#6451FA" stroke-width="8" stroke-linecap="round"/>
<path d="M554 71C565.85 71.4378 568.44 76.0919 567.943 90" stroke="#6451FA" stroke-width="8" stroke-linecap="round"/>
<path d="M47 333C58.8502 333.438 61.4404 338.092 60.9427 352" stroke="#6451FA" stroke-width="8" stroke-linecap="round"/>
<path d="M668 90C656.15 90.4378 653.56 95.0919 654.057 109" stroke="#6451FA" stroke-width="8" stroke-linecap="round"/>
<path d="M111 329C99.1229 323.96 98.2732 318.286 104.108 304.529" stroke="#6451FA" stroke-width="8" stroke-linecap="round"/>
<path d="M622.281 59.4922C634.158 54.4522 635.008 48.7785 629.174 35.0216" stroke="#6451FA" stroke-width="8" stroke-linecap="round"/>
</g>
<defs>
<clipPath id="clip0_1040_1493">
<rect width="676" height="441" fill="white"/>
</clipPath>
</defs>
</svg>
