<svg width="550" height="441" viewBox="0 0 550 441" fill="none" xmlns="http://www.w3.org/2000/svg">
<g clip-path="url(#clip0_1040_1473)">
<circle cx="89.1296" cy="229.647" r="71.9411" transform="rotate(-16.1697 89.1296 229.647)" fill="#FFDA67"/>
<path d="M56.3805 232.055C59.4744 222.254 71.9926 219.366 77.5978 225.903" stroke="black" stroke-width="6.07953" stroke-linecap="round"/>
<path d="M97.0602 220.258C100.154 210.457 112.672 207.569 118.277 214.106" stroke="black" stroke-width="6.07953" stroke-linecap="round"/>
<path d="M83.9842 247.205C90.3846 255.826 102.063 252.44 102.475 241.843" stroke="black" stroke-width="6.07953" stroke-linecap="round"/>
<path d="M315.989 240.018L351.183 26.7222C352.342 19.6991 358.414 14.5469 365.532 14.5469H533.198C542.103 14.5469 548.917 22.4786 547.574 31.2822L515.047 244.578C513.964 251.681 507.855 256.929 500.67 256.929H330.338C321.361 256.929 314.528 248.875 315.989 240.018Z" fill="#D0B0F2"/>
<rect x="341.68" y="246.016" width="133.31" height="27.8739" rx="13.9369" fill="#FFDA67"/>
<rect x="408.336" width="78.7738" height="27.8739" rx="13.9369" fill="#FFDA67"/>
<path d="M303.706 418.043L388.706 255.254C391.087 250.694 395.805 247.836 400.948 247.836C411.26 247.836 417.934 258.727 413.253 267.915L329.971 431.377C327.488 436.249 322.482 439.317 317.013 439.317H316.597C305.674 439.317 298.65 427.726 303.706 418.043Z" fill="#FFDA67"/>
<path d="M517.204 418.645L432.204 255.856C429.823 251.296 425.106 248.438 419.962 248.438C409.65 248.438 402.976 259.329 407.657 268.517L490.939 431.978C493.422 436.851 498.428 439.919 503.897 439.919H504.313C515.236 439.919 522.26 428.327 517.204 418.645Z" fill="#FFDA67"/>
<rect width="5.93137" height="121.191" rx="2.96568" transform="matrix(-0.994413 -0.105563 -0.105563 0.994413 200.48 127.734)" fill="#D0B0F2"/>
<path d="M192.233 104.596C191.86 103.418 192.779 102.011 193.934 102.449C203.892 106.234 209.196 118.28 207.374 123.748C207.356 123.801 207.341 123.855 207.336 123.91C206.911 129.097 202.571 133.174 197.275 133.174C191.698 133.174 187.176 128.652 187.176 123.074C187.176 121.549 187.516 120.104 188.121 118.808C189.615 114.491 193.866 109.754 192.233 104.596Z" fill="#F786E2"/>
</g>
<defs>
<clipPath id="clip0_1040_1473">
<rect width="550" height="441" fill="white"/>
</clipPath>
</defs>
</svg>
